TITLE "WEFUNK SHOW #931"
PERFORMER "WEFUNK RADIO"
REM Year  : 2017
REM Genre : HipHop
FILE "WEFUNK_Show_931_2017-12-08_hq.mp3" MP3
	TRACK 01 AUDIO
		TITLE "intro"
		PERFORMER "WEFUNK RADIO"
		INDEX 01 00:00:00
	TRACK 02 AUDIO
		TITLE "last night changed it all (roane namuh remix)"
		PERFORMER "love loungers"
		INDEX 01 01:40:28
	TRACK 03 AUDIO
		TITLE "talk (over g-nof - groovin on the sunshine)"
		PERFORMER "WEFUNK RADIO"
		INDEX 01 05:38:22
	TRACK 04 AUDIO
		TITLE "wonders of funkmas"
		PERFORMER "temu"
		INDEX 01 13:13:33
	TRACK 05 AUDIO
		TITLE "silva bells"
		PERFORMER "le'trell"
		INDEX 01 17:48:47
	TRACK 06 AUDIO
		TITLE "get yours"
		PERFORMER "audio push"
		INDEX 01 22:37:70
	TRACK 07 AUDIO
		TITLE "a.b.c.'s of new york"
		PERFORMER "princess nokia"
		INDEX 01 25:56:55
	TRACK 08 AUDIO
		TITLE "the pain"
		PERFORMER "rapsody"
		INDEX 01 28:43:06
	TRACK 09 AUDIO
		TITLE "rest easy phife"
		PERFORMER "pete rock"
		INDEX 01 32:01:28
	TRACK 10 AUDIO
		TITLE "one eye"
		PERFORMER "ivan ave"
		INDEX 01 33:55:57
	TRACK 11 AUDIO
		TITLE "smiles"
		PERFORMER "lone catalysts feat. blak smif & strawberry kap"
		INDEX 01 35:49:57
	TRACK 12 AUDIO
		TITLE "don't say a word"
		PERFORMER "children of zeus"
		INDEX 01 39:51:68
	TRACK 13 AUDIO
		TITLE "return of the ghetto fly"
		PERFORMER "amp fiddler feat. j. dilla, t3 & neco redd"
		INDEX 01 42:14:47
	TRACK 14 AUDIO
		TITLE "sam cook"
		PERFORMER "illa j."
		INDEX 01 45:27:51
	TRACK 15 AUDIO
		TITLE "best one (remix)"
		PERFORMER "nxworries"
		INDEX 01 47:47:05
	TRACK 16 AUDIO
		TITLE "even though"
		PERFORMER "m.e.d., blu & madlib"
		INDEX 01 50:47:73
	TRACK 17 AUDIO
		TITLE "rumors"
		PERFORMER "sharon jones & the dap-kings"
		INDEX 01 53:20:53
	TRACK 18 AUDIO
		TITLE "bad education"
		PERFORMER "bardo martinez & the soul investigators"
		INDEX 01 55:29:48
	TRACK 19 AUDIO
		TITLE "s.t.a.y."
		PERFORMER "gizelle smith feat. eric boss"
		INDEX 01 59:17:73
	TRACK 20 AUDIO
		TITLE "parribean disco"
		PERFORMER "cotonete vs dimitri from paris"
		INDEX 01 62:41:01
	TRACK 21 AUDIO
		TITLE "bassala hot (black shampoo 12 inch afro funk mix)"
		PERFORMER "orchestre veve star"
		INDEX 01 66:58:54
	TRACK 22 AUDIO
		TITLE "pied piper"
		PERFORMER "dave valentin"
		INDEX 01 71:45:05
	TRACK 23 AUDIO
		TITLE "rhythm"
		PERFORMER "twennynine with lenny white"
		INDEX 01 75:39:59
	TRACK 24 AUDIO
		TITLE "ride on love"
		PERFORMER "george duke"
		INDEX 01 78:36:24
	TRACK 25 AUDIO
		TITLE "lovers forever"
		PERFORMER "brothers johnson"
		INDEX 01 82:10:17
	TRACK 26 AUDIO
		TITLE "i could give you more"
		PERFORMER "marcus miller"
		INDEX 01 84:33:60
	TRACK 27 AUDIO
		TITLE "i wanted your love"
		PERFORMER "luther vandross"
		INDEX 01 89:25:39
	TRACK 28 AUDIO
		TITLE "i shoulda loved ya"
		PERFORMER "narada michael walden"
		INDEX 01 92:08:44
	TRACK 29 AUDIO
		TITLE "she's gone"
		PERFORMER "norman connors"
		INDEX 01 95:11:64
	TRACK 30 AUDIO
		TITLE "night riders"
		PERFORMER "keni burke"
		INDEX 01 98:59:71
	TRACK 31 AUDIO
		TITLE "don't box me in"
		PERFORMER "80s babies"
		INDEX 01 103:03:08
	TRACK 32 AUDIO
		TITLE "flower child"
		PERFORMER "nitty scott m.c. feat. kendrick lamar"
		INDEX 01 106:36:42
	TRACK 33 AUDIO
		TITLE "graduate"
		PERFORMER "oshun"
		INDEX 01 109:20:43
	TRACK 34 AUDIO
		TITLE "talk (over funky d.l. - contemporary empathy)"
		PERFORMER "WEFUNK RADIO"
		INDEX 01 112:48:61
	TRACK 35 AUDIO
		TITLE "it ain't hard to tell (d.j. static blend)"
		PERFORMER "nas"
		INDEX 01 118:12:22
	TRACK 36 AUDIO
		TITLE "spontaneity"
		PERFORMER "bahamadia"
		INDEX 01 120:49:60
	TRACK 37 AUDIO
		TITLE "hityawitdat"
		PERFORMER "lootpack"
		INDEX 01 122:34:46